<mxfile host="65bd71144e">
    <diagram id="RCGXlLzvxyiLNwxiACCr" name="Page-1">
        <mxGraphModel dx="1493" dy="545" grid="0" gridSize="10" guides="1" tooltips="1" connect="1" arrows="1" fold="1" page="0" pageScale="1" pageWidth="850" pageHeight="1100" math="0" shadow="0">
            <root>
                <mxCell id="0"/>
                <mxCell id="1" parent="0"/>
                <mxCell id="_85UlCw2cecGh38xgR6h-1" value="User" style="shape=umlLifeline;participant=umlActor;perimeter=lifelinePerimeter;whiteSpace=wrap;html=1;container=1;collapsible=0;recursiveResize=0;verticalAlign=top;spacingTop=36;labelBackgroundColor=#ffffff;outlineConnect=0;" parent="1" vertex="1">
                    <mxGeometry x="-17" y="80" width="20" height="350" as="geometry"/>
                </mxCell>
                <mxCell id="_85UlCw2cecGh38xgR6h-2" value="" style="html=1;points=[];perimeter=orthogonalPerimeter;" parent="_85UlCw2cecGh38xgR6h-1" vertex="1">
                    <mxGeometry x="5" y="100" width="10" height="220" as="geometry"/>
                </mxCell>
                <mxCell id="_85UlCw2cecGh38xgR6h-3" value="LoginForm:LoginForm&lt;br&gt;" style="shape=umlLifeline;participant=umlBoundary;perimeter=lifelinePerimeter;whiteSpace=wrap;html=1;container=1;collapsible=0;recursiveResize=0;verticalAlign=top;spacingTop=36;labelBackgroundColor=#ffffff;outlineConnect=0;" parent="1" vertex="1">
                    <mxGeometry x="130" y="80" width="50" height="350" as="geometry"/>
                </mxCell>
                <mxCell id="_85UlCw2cecGh38xgR6h-4" value="" style="html=1;points=[];perimeter=orthogonalPerimeter;" parent="_85UlCw2cecGh38xgR6h-3" vertex="1">
                    <mxGeometry x="20" y="100" width="10" height="220" as="geometry"/>
                </mxCell>
                <mxCell id="_85UlCw2cecGh38xgR6h-5" value="LoginController:LoginController" style="shape=umlLifeline;participant=umlControl;perimeter=lifelinePerimeter;whiteSpace=wrap;html=1;container=1;collapsible=0;recursiveResize=0;verticalAlign=top;spacingTop=36;labelBackgroundColor=#ffffff;outlineConnect=0;" parent="1" vertex="1">
                    <mxGeometry x="320" y="80" width="45" height="340" as="geometry"/>
                </mxCell>
                <mxCell id="_85UlCw2cecGh38xgR6h-9" value="" style="html=1;points=[];perimeter=orthogonalPerimeter;" parent="_85UlCw2cecGh38xgR6h-5" vertex="1">
                    <mxGeometry x="15" y="150" width="10" height="130" as="geometry"/>
                </mxCell>
                <mxCell id="_85UlCw2cecGh38xgR6h-12" value="" style="html=1;points=[];perimeter=orthogonalPerimeter;" parent="_85UlCw2cecGh38xgR6h-5" vertex="1">
                    <mxGeometry x="20" y="200" width="10" height="40" as="geometry"/>
                </mxCell>
                <mxCell id="_85UlCw2cecGh38xgR6h-13" value="3.1 verify login info" style="edgeStyle=orthogonalEdgeStyle;html=1;align=left;spacingLeft=2;endArrow=block;rounded=0;entryX=1;entryY=0;exitX=1;exitY=0.308;exitDx=0;exitDy=0;exitPerimeter=0;" parent="_85UlCw2cecGh38xgR6h-5" source="_85UlCw2cecGh38xgR6h-9" target="_85UlCw2cecGh38xgR6h-12" edge="1">
                    <mxGeometry relative="1" as="geometry">
                        <mxPoint x="40" y="190" as="sourcePoint"/>
                        <Array as="points">
                            <mxPoint x="65" y="190"/>
                            <mxPoint x="65" y="200"/>
                        </Array>
                    </mxGeometry>
                </mxCell>
                <mxCell id="_85UlCw2cecGh38xgR6h-6" value="1: Enter login information" style="html=1;verticalAlign=bottom;endArrow=block;exitX=1;exitY=0.091;exitDx=0;exitDy=0;exitPerimeter=0;entryX=-0.2;entryY=0.091;entryDx=0;entryDy=0;entryPerimeter=0;" parent="1" source="_85UlCw2cecGh38xgR6h-2" target="_85UlCw2cecGh38xgR6h-4" edge="1">
                    <mxGeometry width="80" relative="1" as="geometry">
                        <mxPoint x="30" y="200" as="sourcePoint"/>
                        <mxPoint x="110" y="200" as="targetPoint"/>
                    </mxGeometry>
                </mxCell>
                <mxCell id="_85UlCw2cecGh38xgR6h-7" value="2: Click Login" style="html=1;verticalAlign=bottom;endArrow=block;exitX=1;exitY=0.236;exitDx=0;exitDy=0;exitPerimeter=0;" parent="1" source="_85UlCw2cecGh38xgR6h-2" edge="1">
                    <mxGeometry width="80" relative="1" as="geometry">
                        <mxPoint x="30" y="220" as="sourcePoint"/>
                        <mxPoint x="147" y="232" as="targetPoint"/>
                    </mxGeometry>
                </mxCell>
                <mxCell id="_85UlCw2cecGh38xgR6h-11" value="3: login(username,password)" style="html=1;verticalAlign=bottom;endArrow=block;entryX=0.5;entryY=0.231;entryDx=0;entryDy=0;entryPerimeter=0;" parent="1" target="_85UlCw2cecGh38xgR6h-9" edge="1">
                    <mxGeometry width="80" relative="1" as="geometry">
                        <mxPoint x="160" y="260" as="sourcePoint"/>
                        <mxPoint x="320" y="280" as="targetPoint"/>
                    </mxGeometry>
                </mxCell>
                <mxCell id="_85UlCw2cecGh38xgR6h-14" value="3.2: login result" style="html=1;verticalAlign=bottom;endArrow=open;dashed=1;endSize=8;entryX=1.1;entryY=0.636;entryDx=0;entryDy=0;entryPerimeter=0;" parent="1" target="_85UlCw2cecGh38xgR6h-4" edge="1">
                    <mxGeometry relative="1" as="geometry">
                        <mxPoint x="330" y="320" as="sourcePoint"/>
                        <mxPoint x="250" y="320" as="targetPoint"/>
                    </mxGeometry>
                </mxCell>
                <mxCell id="_85UlCw2cecGh38xgR6h-15" value="3.3 Login result" style="html=1;verticalAlign=bottom;endArrow=open;dashed=1;endSize=8;entryX=0.9;entryY=0.818;entryDx=0;entryDy=0;entryPerimeter=0;" parent="1" target="_85UlCw2cecGh38xgR6h-2" edge="1">
                    <mxGeometry relative="1" as="geometry">
                        <mxPoint x="150" y="360" as="sourcePoint"/>
                        <mxPoint x="70" y="360" as="targetPoint"/>
                    </mxGeometry>
                </mxCell>
            </root>
        </mxGraphModel>
    </diagram>
</mxfile>